<svg id="svg" version="1.1" xmlns="http://www.w3.org/2000/svg" xmlns:xlink="http://www.w3.org/1999/xlink" width="400" height="224.98235709244884" viewBox="0, 0, 400,224.98235709244884"><g id="svgg"><path id="path0" d="M57.400 103.003 C 56.967 103.050,55.194 103.198,53.461 103.332 C 49.597 103.633,44.641 104.263,40.244 105.013 C 24.084 107.769,12.906 111.009,3.956 115.531 C 2.709 116.162,1.334 116.738,0.900 116.812 L 0.113 116.946 0.056 171.022 L -0.001 225.098 200.000 225.098 L 400.000 225.098 400.000 200.338 C 400.000 180.678,399.942 175.577,399.719 175.578 C 399.564 175.579,398.615 175.777,397.610 176.018 C 396.605 176.259,393.566 176.920,390.857 177.486 C 388.148 178.053,385.020 178.719,383.905 178.967 C 378.645 180.137,375.481 180.621,370.850 180.965 C 369.240 181.085,365.037 181.400,361.508 181.666 C 354.664 182.182,351.325 182.184,340.349 181.679 C 331.241 181.260,328.527 181.018,323.619 180.189 C 321.041 179.753,316.600 179.043,313.750 178.610 C 306.620 177.527,304.363 177.037,295.667 174.684 C 293.810 174.181,290.163 173.263,287.563 172.642 C 281.863 171.282,280.877 170.993,272.257 168.151 C 268.542 166.926,262.718 165.061,259.313 164.005 C 247.021 160.193,220.750 151.203,205.177 145.480 C 203.320 144.797,200.281 143.680,198.424 142.997 C 194.841 141.679,183.204 137.258,177.940 135.216 C 165.700 130.466,150.166 123.931,135.935 117.544 C 124.846 112.567,119.902 110.729,112.293 108.753 C 103.825 106.554,91.107 104.216,83.174 103.399 C 80.025 103.074,59.661 102.762,57.400 103.003 " stroke="none" fill="#84bc04" fill-rule="evenodd"></path><path id="path1" d="M60.777 101.652 C 40.026 102.355,14.819 108.113,2.270 115.014 C -1.820 117.264,-0.365 117.708,3.956 115.529 C 14.069 110.429,29.789 106.217,46.933 104.014 C 59.066 102.454,77.754 102.510,89.026 104.140 C 108.339 106.932,119.217 110.041,135.935 117.544 C 150.166 123.931,165.700 130.466,177.940 135.216 C 183.204 137.258,194.841 141.679,198.424 142.997 C 200.281 143.680,203.320 144.797,205.177 145.480 C 220.750 151.203,247.021 160.193,259.313 164.005 C 262.718 165.061,268.542 166.926,272.257 168.151 C 280.877 170.993,281.863 171.282,287.563 172.642 C 290.163 173.263,293.810 174.181,295.667 174.684 C 304.363 177.037,306.620 177.527,313.750 178.610 C 316.600 179.043,321.041 179.753,323.619 180.189 C 328.527 181.018,331.241 181.260,340.349 181.679 C 351.325 182.184,354.664 182.182,361.508 181.666 C 365.037 181.400,369.240 181.085,370.850 180.965 C 375.506 180.619,378.615 180.142,384.018 178.944 C 385.194 178.683,388.486 177.976,391.334 177.374 C 394.181 176.771,397.296 176.102,398.255 175.888 L 400.000 175.498 400.000 169.660 L 400.000 163.823 399.494 163.945 C 395.761 164.845,386.625 166.326,378.841 167.292 C 374.176 167.872,355.811 167.664,348.227 166.947 C 336.423 165.830,325.046 164.569,313.337 163.082 C 287.076 159.745,287.642 159.825,278.559 158.224 C 243.438 152.036,218.708 144.885,166.123 125.716 C 120.971 109.256,109.325 105.800,89.139 102.874 C 82.367 101.893,69.735 101.348,60.777 101.652 " stroke="none" fill="#b3d35b" fill-rule="evenodd"></path><path id="path2" d="M-0.000 58.216 C -0.000 106.733,0.050 116.390,0.300 116.182 C 3.262 113.724,15.125 109.203,24.573 106.932 C 54.871 99.648,81.413 99.715,110.982 107.149 C 120.876 109.636,135.800 114.662,166.123 125.716 C 218.708 144.885,243.438 152.036,278.559 158.224 C 287.642 159.825,287.076 159.745,313.337 163.082 C 325.046 164.569,336.423 165.830,348.227 166.947 C 355.811 167.664,374.176 167.872,378.841 167.292 C 386.626 166.326,393.619 165.204,398.818 164.088 L 400.000 163.834 400.000 81.917 L 400.000 0.000 200.000 0.000 L 0.000 0.000 -0.000 58.216 " stroke="none" fill="#dcf4fc" fill-rule="evenodd"></path></g></svg>